<svg width="70" height="74" viewBox="0 0 70 74" fill="none" xmlns="http://www.w3.org/2000/svg">
<path d="M70 36.5154C70 16.3464 54.332 6.10352e-05 35 6.10352e-05C15.668 6.10352e-05 0 16.3464 0 36.5154C0 56.6845 15.668 73.0308 35 73.0308C35.2051 73.0308 35.4102 73.0308 35.6152 73.0166V44.603H28.0957V35.4599H35.6152V28.7274C35.6152 20.9251 40.1816 16.6745 46.8535 16.6745C50.0527 16.6745 52.8008 16.917 53.5938 17.0311V25.19H49C45.377 25.19 44.666 26.9872 44.666 29.626V35.4457H53.3477L52.2129 44.5888H44.666V71.6187C59.2949 67.2397 70 53.1898 70 36.5154Z" fill="#757575"/>
</svg>
