<svg width="70" height="70" viewBox="0 0 70 70" fill="none" xmlns="http://www.w3.org/2000/svg">
<g clip-path="url(#clip0)">
<path d="M41.6992 35.0001C41.6992 38.7 38.7 41.6993 35 41.6993C31.3 41.6993 28.3008 38.7 28.3008 35.0001C28.3008 31.3001 31.3 28.3008 35 28.3008C38.7 28.3008 41.6992 31.3001 41.6992 35.0001Z" fill="#757575"/>
<path d="M35 6.10352e-05C15.673 6.10352e-05 0 15.673 0 35.0001C0 54.3271 15.673 70.0001 35 70.0001C54.327 70.0001 70 54.3271 70 35.0001C70 15.673 54.327 6.10352e-05 35 6.10352e-05ZM54.9764 43.286C54.8792 45.4254 54.539 46.886 54.0424 48.1646C52.9983 50.8642 50.8642 52.9983 48.1645 54.0424C46.8865 54.5391 45.4253 54.8788 43.2864 54.9765C41.1433 55.0742 40.4586 55.0977 35.0005 55.0977C29.5419 55.0977 28.8578 55.0742 26.7141 54.9765C24.5752 54.8788 23.114 54.5391 21.836 54.0424C20.4945 53.5377 19.28 52.7468 18.276 51.7241C17.2538 50.7206 16.4629 49.5056 15.9582 48.1646C15.4615 46.8866 15.1213 45.4254 15.0241 43.2865C14.9253 41.1428 14.9023 40.4581 14.9023 35.0001C14.9023 29.542 14.9253 28.8573 15.0236 26.7142C15.1208 24.5747 15.4604 23.1141 15.9571 21.8355C16.4618 20.4945 17.2533 19.2795 18.276 18.276C19.2795 17.2533 20.4945 16.4624 21.8355 15.9577C23.114 15.461 24.5747 15.1214 26.7141 15.0236C28.8573 14.9259 29.5419 14.9024 35 14.9024C40.4581 14.9024 41.1427 14.9259 43.2859 15.0242C45.4253 15.1214 46.886 15.461 48.1645 15.9572C49.5055 16.4619 50.7205 17.2533 51.7245 18.276C52.7467 19.2801 53.5382 20.4945 54.0424 21.8355C54.5396 23.1141 54.8792 24.5747 54.977 26.7142C55.0747 28.8573 55.0977 29.542 55.0977 35.0001C55.0977 40.4581 55.0747 41.1428 54.9764 43.286Z" fill="#757575"/>
<path d="M50.4772 22.9567C50.1552 22.0841 49.6414 21.2942 48.9738 20.6458C48.3255 19.9783 47.5361 19.4645 46.663 19.1425C45.9548 18.8674 44.8909 18.5401 42.9315 18.4509C40.8118 18.3542 40.1763 18.3334 34.8101 18.3334C29.4433 18.3334 28.8078 18.3537 26.6887 18.4503C24.7292 18.5401 23.6648 18.8674 22.9572 19.1425C22.084 19.4645 21.2941 19.9783 20.6463 20.6458C19.9788 21.2942 19.465 22.0835 19.1424 22.9567C18.8674 23.6649 18.54 24.7292 18.4508 26.6887C18.3542 28.8078 18.3333 29.4434 18.3333 34.8101C18.3333 40.1763 18.3542 40.8119 18.4508 42.9315C18.54 44.891 18.8674 45.9548 19.1424 46.663C19.465 47.5362 19.9782 48.3255 20.6458 48.9739C21.2941 49.6414 22.0835 50.1552 22.9567 50.4772C23.6648 50.7528 24.7292 51.0802 26.6887 51.1694C28.8078 51.266 29.4428 51.2863 34.8095 51.2863C40.1768 51.2863 40.8123 51.266 42.931 51.1694C44.8904 51.0802 45.9548 50.7528 46.663 50.4772C48.4157 49.8011 49.8011 48.4158 50.4772 46.663C50.7522 45.9548 51.0796 44.891 51.1693 42.9315C51.266 40.8119 51.2863 40.1763 51.2863 34.8101C51.2863 29.4434 51.266 28.8078 51.1693 26.6887C51.0801 24.7292 50.7528 23.6649 50.4772 22.9567ZM34.8101 45.1297C29.1101 45.1297 24.4894 40.5096 24.4894 34.8096C24.4894 29.1096 29.1101 24.4895 34.8101 24.4895C40.5095 24.4895 45.1302 29.1096 45.1302 34.8096C45.1302 40.5096 40.5095 45.1297 34.8101 45.1297ZM45.5382 26.4932C44.2063 26.4932 43.1264 25.4134 43.1264 24.0814C43.1264 22.7495 44.2063 21.6696 45.5382 21.6696C46.8702 21.6696 47.95 22.7495 47.95 24.0814C47.9495 25.4134 46.8702 26.4932 45.5382 26.4932Z" fill="#757575"/>
</g>
<defs>
<clipPath id="clip0">
<rect width="70" height="70" fill="white"/>
</clipPath>
</defs>
</svg>
