<svg width="70" height="74" viewBox="0 0 70 74" fill="none" xmlns="http://www.w3.org/2000/svg">
<path d="M35 6.10352e-05C15.673 6.10352e-05 0 16.3516 0 36.5154C0 56.6792 15.673 73.0308 35 73.0308C54.3271 73.0308 70.0001 56.6792 70.0001 36.5154C70.0001 16.3516 54.3271 6.10352e-05 35 6.10352e-05ZM24.8294 55.201H16.3053V28.4458H24.8294V55.201ZM20.5676 24.7924H20.5121C17.6517 24.7924 15.8017 22.738 15.8017 20.1706C15.8017 17.5451 17.7083 15.5476 20.6243 15.5476C23.5402 15.5476 25.3346 17.5451 25.3902 20.1706C25.3902 22.738 23.5402 24.7924 20.5676 24.7924ZM55.5655 55.201H47.0425V40.8876C47.0425 37.2905 45.8083 34.8372 42.7241 34.8372C40.3694 34.8372 38.967 36.492 38.3507 38.0895C38.1253 38.6611 38.0703 39.4601 38.0703 40.2597V55.201H29.5468C29.5468 55.201 29.6584 30.9559 29.5468 28.4458H38.0703V32.2341C39.2031 30.411 41.2298 27.8179 45.7522 27.8179C51.3604 27.8179 55.5655 31.6418 55.5655 39.8596V55.201Z" fill="#757575"/>
</svg>
