<svg width="77" height="77" viewBox="0 0 77 77" fill="none" xmlns="http://www.w3.org/2000/svg">
<g clip-path="url(#clip0)">
<path d="M41.8153 73.1321C61.0379 71.1939 75.0657 54.0199 73.1275 34.7974C71.1893 15.5749 54.0154 1.547 34.7929 3.48521C15.5703 5.42342 1.54246 22.5974 3.48066 41.8199C5.41886 61.0424 22.5928 75.0703 41.8153 73.1321ZM54.0974 53.2965L54.0977 53.2994C51.7558 53.5356 43.5312 46.0747 23.1712 52.431C22.637 52.6285 21.9428 52.9242 21.5365 52.9651C18.8812 53.2329 17.9728 49.3113 20.7672 48.4169C32.0116 44.7181 43.787 43.7565 54.4149 48.7413C56.96 50.0266 56.2419 53.0803 54.0974 53.2965ZM56.9502 43.7074C56.6135 43.6534 56.7382 43.931 55.1583 43.2929C45.8561 38.9836 32.5629 38.2074 21.2389 42.5416C20.5841 42.7923 20.2369 43.012 19.6042 43.0758C16.4963 43.3892 15.2007 38.7972 18.491 37.501C31.7889 32.276 46.6961 33.0389 57.5298 38.0879C58.7352 38.6465 59.2731 39.4746 59.396 40.6935C59.5342 42.2097 58.4795 43.5532 56.9502 43.7074ZM15.2151 25.9736C27.9533 20.8079 47.9394 20.0181 61.017 25.9812C64.3671 27.4873 63.5876 32.2298 60.2214 32.5692L60.2182 32.5666C59.4869 32.6404 59.0187 32.5029 58.3492 32.201C47.7561 27.2421 29.733 27.6141 18.4914 32.0103C17.9977 32.2008 17.3876 32.4881 16.7143 32.556C14.86 32.7429 13.2978 31.4376 13.1097 29.5717C12.9174 27.6651 13.9897 26.4665 15.2151 25.9736Z" fill="#757575"/>
</g>
<defs>
<clipPath id="clip0">
<rect width="70" height="70" fill="white" transform="translate(0 7.02252) rotate(-5.75766)"/>
</clipPath>
</defs>
</svg>
