<svg width="70" height="70" viewBox="0 0 70 70" fill="none" xmlns="http://www.w3.org/2000/svg">
<g clip-path="url(#clip0)">
<path d="M18.3869 37.5831H21.1619V52.6021H23.7871V37.5831H26.6136V35.1232H18.3869V37.5831Z" fill="#757575"/>
<path d="M40.585 39.4192C39.717 39.4192 38.9071 39.8932 38.1459 40.8313V35.1225H35.7863V52.6021H38.1459V51.3403C38.9358 52.3149 39.745 52.7818 40.585 52.7818C41.5238 52.7818 42.1554 52.2877 42.4705 51.3181C42.6288 50.766 42.7097 49.8988 42.7097 48.6935V43.5075C42.7097 42.2743 42.6288 41.4135 42.4705 40.8901C42.1561 39.9133 41.5231 39.4192 40.585 39.4192ZM40.3487 48.8783C40.3487 50.0556 40.0035 50.6356 39.3217 50.6356C38.9343 50.6356 38.5398 50.4502 38.1452 50.0549V42.1175C38.5398 41.7272 38.9343 41.5424 39.3217 41.5424C40.0028 41.5424 40.3487 42.1454 40.3487 43.3198V48.8783Z" fill="#757575"/>
<path d="M31.3829 49.5314C30.8594 50.2712 30.3646 50.6357 29.8905 50.6357C29.5754 50.6357 29.3957 50.4502 29.3384 50.0836C29.3169 50.0077 29.3169 49.7198 29.3169 49.1669V39.5782H26.9566V49.8752C26.9566 50.7954 27.0361 51.417 27.165 51.8123C27.402 52.4725 27.9262 52.7819 28.6853 52.7819C29.554 52.7819 30.4448 52.2577 31.3829 51.1821V52.6028H33.7446V39.5782H31.3829V49.5314Z" fill="#757575"/>
<path d="M33.4088 27.5461C34.1772 27.5461 34.546 26.9367 34.546 25.7193V20.183C34.546 18.9649 34.1772 18.3583 33.4088 18.3583C32.6397 18.3583 32.2702 18.9656 32.2702 20.183V25.7193C32.2702 26.9374 32.6397 27.5461 33.4088 27.5461Z" fill="#757575"/>
<path d="M35 6.10352e-05C15.67 6.10352e-05 0 15.67 0 35.0001C0 54.3301 15.67 70.0001 35 70.0001C54.33 70.0001 70 54.3301 70 35.0001C70 15.67 54.33 6.10352e-05 35 6.10352e-05ZM38.8928 16.3704H41.271V26.0608C41.271 26.6201 41.271 26.9101 41.2996 26.9882C41.3519 27.3577 41.5395 27.5468 41.8589 27.5468C42.3359 27.5468 42.8364 27.1772 43.3656 26.4303V16.3704H45.7503V29.5318H43.3656V28.0967C42.4161 29.1852 41.5109 29.713 40.6408 29.713C39.8731 29.713 39.3432 29.4015 39.104 28.7355C38.9723 28.3366 38.8928 27.7072 38.8928 26.7784V16.3704ZM29.8855 20.6621C29.8855 19.2549 30.1247 18.2266 30.6317 17.5613C31.2913 16.6611 32.2201 16.2114 33.4088 16.2114C34.6033 16.2114 35.5314 16.6611 36.1909 17.5613C36.6907 18.2258 36.9299 19.2549 36.9299 20.6621V25.271C36.9299 26.6702 36.6907 27.7079 36.1909 28.366C35.5314 29.264 34.6033 29.713 33.4088 29.713C32.2201 29.713 31.2913 29.264 30.6317 28.366C30.1247 27.7079 29.8855 26.6695 29.8855 25.271V20.6621ZM23.5078 11.8703L25.3855 18.8059L27.1894 11.8703H29.864L26.6824 22.3793V29.5325H24.0385V22.3793C23.7986 21.1118 23.2694 19.2549 22.4208 16.7915C21.8636 15.1523 21.2829 13.5081 20.7257 11.8703H23.5078ZM53.8416 53.7522C53.3633 55.8282 51.6654 57.3607 49.6209 57.5891C44.7778 58.1298 39.8789 58.1326 34.9979 58.1298C30.119 58.1326 25.2172 58.1298 20.3755 57.5891C18.331 57.3607 16.6324 55.8289 16.1555 53.7522C15.4745 50.7954 15.4745 47.5664 15.4745 44.5215C15.4745 41.4766 15.4831 38.2483 16.1634 35.2908C16.641 33.2141 18.3382 31.6816 20.3827 31.4539C25.2251 30.9132 30.1261 30.9103 35.0064 30.9132C39.8853 30.9103 44.7864 30.9132 49.6287 31.4539C51.6733 31.6823 53.3719 33.2141 53.8509 35.2908C54.5298 38.2483 54.5255 41.4766 54.5255 44.5215C54.5255 47.5664 54.5227 50.7954 53.8416 53.7522Z" fill="#757575"/>
<path d="M48.1013 39.4192C46.8939 39.4192 45.9565 39.8625 45.2748 40.754C44.7742 41.4128 44.5458 42.4312 44.5458 43.8226V48.3849C44.5458 49.7692 44.8014 50.7946 45.3041 51.447C45.9852 52.3364 46.9254 52.7811 48.16 52.7811C49.3924 52.7811 50.3599 52.3149 51.013 51.369C51.2994 50.9508 51.4856 50.4774 51.5644 49.9546C51.5866 49.7183 51.6145 49.1948 51.6145 48.4336V48.0906H49.2077C49.2077 49.0359 49.1769 49.5608 49.1561 49.689C49.0215 50.3199 48.682 50.6349 48.1013 50.6349C47.2906 50.6349 46.8939 50.0334 46.8939 48.8289V46.5187H51.6145V43.8211C51.6145 42.4297 51.3789 41.4114 50.8841 40.7526C50.2245 39.8632 49.2857 39.4192 48.1013 39.4192ZM49.2556 44.5551H46.8953V43.3499C46.8953 42.1454 47.2913 41.5432 48.0798 41.5432C48.8604 41.5432 49.2556 42.1461 49.2556 43.3499V44.5551Z" fill="#757575"/>
</g>
<defs>
<clipPath id="clip0">
<rect width="70" height="70" fill="white"/>
</clipPath>
</defs>
</svg>
